<?xml version="1.0" encoding="utf-8"?>
<svg version="1.1" id="ART" xmlns="http://www.w3.org/2000/svg" xmlns:xlink="http://www.w3.org/1999/xlink" x="0px" y="0px"
	 viewBox="0 0 137 135" enable-background="new 0 0 137 135" xml:space="preserve" fill="rgba(240,246,252,.6)">
<g>
	<path fill="rgba(240,246,252,.6)" d="M119.1,28.5h-8.8c-4.7,0-8.4,3.8-8.4,8.4v11.7v54.2c0,0.1,0,0.2,0,0.3l0,0c0,0.1,0.1,0.2,0.1,0.3l0,0l11.4,22.3
		c0.3,0.5,0.8,0.8,1.3,0.8l0,0c0.6,0,1.1-0.3,1.3-0.8l11.3-22.3l0,0c0.1-0.1,0.1-0.2,0.1-0.3l0,0c0-0.1,0-0.2,0-0.3V48.7V37
		C127.6,32.3,123.8,28.5,119.1,28.5z M104.9,101.4V50.2h8.3v51.2H104.9z M116.2,50.2h8.3v51.2h-8.3V50.2z M104.9,37
		c0-3,2.4-5.4,5.4-5.4h8.8c3,0,5.4,2.4,5.4,5.4v10.2h-19.7V37H104.9z M114.8,121.9l-2.3-4.5h4.6L114.8,121.9z M118.6,114.4H111
		l-5.1-10h17.8L118.6,114.4z"/>
	<g>
		<path fill="rgba(240,246,252,.6)" d="M87.3,27.7H81v-2c0-3.4-2.8-6.2-6.2-6.2h-7c-1.4,0-2.6-0.8-2.9-2c-1.6-5.4-6.7-9.2-12.3-9.2c-5.7,0-10.7,3.8-12.3,9.2
			c-0.3,1.2-1.6,2-2.9,2h-7c-3.4,0-6.2,2.8-6.2,6.2v2h-6.3c-4.6,0-8.3,3.7-8.3,8.3v82.4c0,4.6,3.7,8.3,8.3,8.3h69.4
			c4.6,0,8.3-3.7,8.3-8.3V36C95.6,31.4,91.9,27.7,87.3,27.7z M27.2,25.7c0-1.7,1.4-3.2,3.2-3.2h7c2.7,0,5.1-1.7,5.8-4.2
			c1.2-4.2,5.1-7,9.4-7s8.2,2.9,9.4,7c0.7,2.5,3.1,4.2,5.8,4.2h7c1.7,0,3.2,1.4,3.2,3.2v6.1c0,1.7-1.4,3.2-3.2,3.2H30.4
			c-1.7,0-3.2-1.4-3.2-3.2C27.2,31.8,27.2,25.7,27.2,25.7z M92.6,118.4c0,2.9-2.4,5.3-5.3,5.3H17.9c-2.9,0-5.3-2.4-5.3-5.3V36
			c0-2.9,2.4-5.3,5.3-5.3h6.3v1.1c0,3.4,2.8,6.2,6.2,6.2h44.5c3.4,0,6.2-2.8,6.2-6.2v-1.1h6.3c2.9,0,5.3,2.4,5.3,5.3L92.6,118.4
			L92.6,118.4z"/>
		<circle cx="52.6" cy="21.5" r="4.1"/>
		<path fill="rgba(240,246,252,.6)" d="M77.3,56c-2.6-4.6-7.9-6.9-13-6c-1.8-4.9-6.4-8.2-11.7-8.2c-5.3,0-10,3.4-11.7,8.2c-5.1-0.9-10.4,1.4-13,6
			s-2,10.3,1.3,14.3c-3.3,3.9-3.9,9.7-1.3,14.3c2.6,4.5,7.9,6.9,13,6c1.6,4.4,5.6,7.6,10.2,8.1v4.3H32c-0.8,0-1.5,0.7-1.5,1.5
			s0.7,1.5,1.5,1.5h19.1v6.5c-2.9,0.1-5.6,2-6.6,4.8c-0.2,0.6-0.3,1.2-0.4,1.8c-0.1,0.8,0.5,1.6,1.4,1.6h0.1c0.8,0,1.4-0.6,1.5-1.4
			c0-0.4,0.1-0.7,0.2-1.1c0.6-1.6,2.1-2.7,3.7-2.8v3.7c0,0.8,0.7,1.5,1.5,1.5s1.5-0.7,1.5-1.5v-6.6c1.8-0.1,3.5,1.1,4.1,2.8
			c0.1,0.3,0.2,0.7,0.2,1.1c0.1,0.8,0.7,1.4,1.5,1.4h0.1c0.8-0.1,1.4-0.8,1.4-1.6c-0.1-0.6-0.2-1.2-0.4-1.8
			c-1.1-2.9-3.9-4.8-6.9-4.8V106h19.1c0.8,0,1.5-0.7,1.5-1.5s-0.7-1.5-1.5-1.5h-19v-4.3c4.6-0.6,8.6-3.8,10.2-8.1
			c5.1,0.9,10.4-1.4,13-6c2.6-4.6,2-10.3-1.3-14.3C79.4,66.3,79.9,60.5,77.3,56z M74.7,83c-2.2,3.8-6.8,5.6-11,4.3
			c-0.4-0.1-0.8-0.1-1.2,0.1c-0.4,0.2-0.6,0.6-0.7,1c-0.8,3.8-4,6.6-7.7,7.2V78.9c0.9-0.1,1.8-0.3,2.6-0.6c5.4-1.9,8.8-7.5,8.1-13.3
			c-0.1-0.8-0.8-1.4-1.7-1.3c-0.8,0.1-1.4,0.9-1.3,1.7c0.6,4.3-2,8.6-6.2,10.1c-0.5,0.2-1.1,0.3-1.6,0.4V53.7c0-0.8-0.7-1.5-1.5-1.5
			S51,52.9,51,53.7v13.6c-0.3-0.1-0.5-0.1-0.8-0.2c-4.1-1.5-6.7-5.7-6.2-10.1c0.1-0.8-0.5-1.6-1.3-1.7s-1.6,0.5-1.7,1.3
			c-0.7,5.7,2.7,11.3,8.1,13.3c0.6,0.2,1.2,0.4,1.8,0.5v13.8c-0.3-0.1-0.5-0.1-0.8-0.2c-4.1-1.5-6.7-5.7-6.2-10.1
			c0.1-0.8-0.5-1.6-1.3-1.7c-0.8-0.1-1.6,0.5-1.7,1.3c-0.7,5.7,2.7,11.3,8.1,13.3c0.6,0.2,1.2,0.4,1.8,0.5v8.4
			c-3.7-0.6-6.9-3.5-7.7-7.2c-0.1-0.4-0.3-0.8-0.7-1c-0.2-0.1-0.5-0.2-0.8-0.2c-0.2,0-0.3,0-0.4,0.1c-4.2,1.3-8.8-0.5-11-4.3
			s-1.4-8.7,1.8-11.7c0.3-0.3,0.5-0.7,0.5-1.1c0-0.4-0.2-0.8-0.5-1.1c-3.2-3-4-7.9-1.8-11.7c2.2-3.8,6.8-5.6,11-4.3
			c0.4,0.1,0.8,0.1,1.2-0.1s0.6-0.6,0.7-1c0.9-4.3,4.8-7.4,9.2-7.4s8.2,3.1,9.2,7.4c0.1,0.4,0.3,0.8,0.7,1s0.8,0.3,1.2,0.1
			c4.2-1.3,8.8,0.5,11,4.3s1.4,8.7-1.8,11.7c-0.3,0.3-0.5,0.7-0.5,1.1c0,0.4,0.2,0.8,0.5,1.1C76.2,74.3,76.9,79.2,74.7,83z"/>
	</g>
</g>
</svg>
